<svg width="48" height="49" viewBox="0 0 48 49" fill="none" xmlns="http://www.w3.org/2000/svg">
<path d="M48 5.31994C48 6.7819 47.48 8.04082 46.44 9.09668C45.4 10.1525 44.16 10.6805 42.72 10.6805C41.48 10.6805 40.32 10.1932 39.24 9.25913L30.84 17.7873C31.76 19.0056 32.24 20.4675 32.24 22.1732C32.24 23.8788 31.8 25.3002 30.84 26.4778L37.52 33.3004C38.08 32.9349 38.68 32.7318 39.32 32.7318C40.24 32.7318 41.08 33.0973 41.76 33.7877C42.44 34.4781 42.8 35.3309 42.8 36.3461C42.8 37.2802 42.44 38.133 41.76 38.8234C41.08 39.5137 40.24 39.8792 39.32 39.8792C38.32 39.8792 37.48 39.5137 36.84 38.8234C36.2 38.133 35.8 37.3208 35.8 36.3461C35.8 35.6558 35.96 35.0466 36.28 34.5187L29.64 27.6962C28.52 28.5084 27.36 29.0363 26.16 29.2393V38.1736C27.4 38.4172 28.44 39.0264 29.32 40.0417C30.2 41.0569 30.6 42.1534 30.6 43.4123C30.6 44.8743 30.08 46.1332 29.04 47.1891C28 48.2449 26.76 48.7322 25.32 48.7322C23.88 48.7322 22.64 48.2043 21.6 47.1484C20.56 46.0926 20.04 44.8337 20.04 43.3717C20.04 42.1128 20.48 40.9757 21.32 40.001C22.16 39.0264 23.2 38.4172 24.48 38.1736V29.2393C23.28 29.0363 22.12 28.549 21 27.6962L9.84 39.1076C10.28 40.001 10.48 40.8539 10.48 41.6661C10.48 43.128 9.96 44.3463 8.92 45.3616C7.88 46.3768 6.64 46.9048 5.2 46.9048C3.76 46.9048 2.52 46.3768 1.48 45.3616C0.44 44.3463 0 43.1686 0 41.7067C0 40.2447 0.52 38.9858 1.56 37.9299C2.6 36.8741 3.84 36.3461 5.28 36.3461C6.6 36.3461 7.76 36.7928 8.76 37.6863L19.84 26.4372C18.8 25.2595 18.28 23.8382 18.28 22.1732C18.28 20.5894 18.8 19.1274 19.8 17.7873L13.12 11.046C12.52 11.3709 11.92 11.5333 11.36 11.5333C10.36 11.5333 9.52 11.1678 8.88 10.4774C8.24 9.78706 7.88 8.93424 7.88 8.00021C7.88 6.98495 8.2 6.13214 8.88 5.48238C9.56 4.83261 10.36 4.46712 11.36 4.46712C12.36 4.46712 13.2 4.792 13.84 5.48238C14.48 6.17275 14.8 6.98495 14.8 8.00021C14.8 8.56875 14.64 9.17791 14.32 9.82767L20.96 16.569C22.32 15.5537 23.76 15.0258 25.32 15.0258C26.88 15.0258 28.32 15.5537 29.64 16.569L38.16 7.79716C37.72 7.02556 37.52 6.21336 37.52 5.31994C37.52 3.85797 38.04 2.59905 39.08 1.54319C40.12 0.487322 41.32 0 42.76 0C44.2 0 45.44 0.527933 46.48 1.5838C47.52 2.63966 48 3.85797 48 5.31994ZM7.68 44.1839C8.36 43.4935 8.72 42.6407 8.72 41.7067C8.72 40.6914 8.36 39.8386 7.68 39.1482C7 38.4579 6.2 38.0924 5.24 38.0924C4.24 38.0924 3.4 38.4579 2.76 39.1482C2.12 39.8386 1.76 40.6914 1.76 41.7067C1.76 42.6407 2.08 43.4935 2.76 44.1839C3.44 44.8743 4.24 45.2398 5.24 45.2398C6.2 45.1992 7 44.8743 7.68 44.1839ZM10.08 9.17791C10.44 9.5434 10.84 9.70584 11.36 9.70584C11.88 9.70584 12.28 9.5434 12.64 9.17791C13 8.81241 13.16 8.44692 13.16 8.00021C13.16 7.47228 12.96 7.06617 12.6 6.70068C12.24 6.33519 11.8 6.17275 11.4 6.17275C11 6.17275 10.56 6.33519 10.2 6.70068C9.84 7.06617 9.56 7.47228 9.56 8.00021C9.56 8.44692 9.72 8.85302 10.08 9.17791ZM30.56 22.1732C30.56 20.7112 30.04 19.4523 29 18.3964C27.96 17.3406 26.76 16.8532 25.32 16.8532C23.88 16.8532 22.64 17.3812 21.6 18.437C20.56 19.4929 20.08 20.7112 20.08 22.1732C20.08 23.6351 20.56 24.8941 21.6 25.9499C22.64 27.0058 23.88 27.5337 25.32 27.5337C26.76 27.5337 28 26.9652 29 25.9499C30 24.9347 30.56 23.6351 30.56 22.1732ZM27.8 40.9351C27.16 40.2447 26.32 39.8792 25.32 39.8792C24.32 39.8792 23.48 40.2447 22.84 40.9351C22.2 41.6255 21.84 42.4783 21.84 43.4123C21.84 44.4276 22.16 45.2804 22.84 45.9301C23.52 46.5799 24.32 46.9454 25.32 46.9454C26.32 46.9454 27.16 46.6205 27.8 45.9301C28.44 45.2398 28.8 44.4276 28.8 43.4123C28.8 42.4377 28.44 41.6255 27.8 40.9351ZM40.56 35.0872C40.2 34.7217 39.8 34.5593 39.28 34.5593C38.76 34.5593 38.36 34.7217 38 35.0872C37.64 35.4527 37.52 35.8588 37.52 36.3461C37.52 36.7928 37.68 37.1989 38.04 37.5238C38.4 37.8487 38.8 38.0924 39.28 38.0924C39.76 38.0924 40.2 37.9299 40.56 37.5644C40.92 37.1989 41.08 36.8335 41.08 36.3867C41.08 35.8588 40.88 35.4121 40.56 35.0872ZM45.24 7.79716C45.88 7.10678 46.24 6.25397 46.24 5.31994C46.24 4.30468 45.92 3.45187 45.24 2.8021C44.56 2.15234 43.76 1.78685 42.76 1.78685C41.84 1.78685 41 2.11173 40.32 2.8021C39.64 3.49248 39.28 4.30468 39.28 5.31994C39.28 6.25397 39.64 7.10678 40.32 7.79716C41 8.48753 41.84 8.85302 42.76 8.85302C43.76 8.85302 44.56 8.48753 45.24 7.79716Z" fill="white"/>
</svg>
