<svg width="23" height="23" viewBox="0 0 23 23" fill="none" xmlns="http://www.w3.org/2000/svg">
<path d="M9.75 12.0801V17H11.8864V12.0801H13.5455L13.8182 10.125H11.8864V8.77148C11.8864 8.45638 11.947 8.22721 12.0682 8.08398C12.2197 7.91211 12.5 7.82617 12.9091 7.82617H14V6.08594C13.5909 6.02865 13.0606 6 12.4091 6C11.6061 6 10.9621 6.22917 10.4773 6.6875C9.99242 7.13151 9.75 7.76172 9.75 8.57812V10.125H8V12.0801H9.75Z" fill="#BDBDBD"/>
<path fill-rule="evenodd" clip-rule="evenodd" d="M23 11.5C23 17.8513 17.8513 23 11.5 23C5.14873 23 0 17.8513 0 11.5C0 5.14873 5.14873 0 11.5 0C17.8513 0 23 5.14873 23 11.5ZM22 11.5C22 17.299 17.299 22 11.5 22C5.70101 22 1 17.299 1 11.5C1 5.70101 5.70101 1 11.5 1C17.299 1 22 5.70101 22 11.5Z" fill="#BDBDBD"/>
</svg>
