<svg width="23" height="23" viewBox="0 0 23 23" fill="none" xmlns="http://www.w3.org/2000/svg">
<path fill-rule="evenodd" clip-rule="evenodd" d="M8 5C6.34315 5 5 6.34315 5 8V15C5 16.6569 6.34315 18 8 18H15C16.6569 18 18 16.6569 18 15V8C18 6.34315 16.6569 5 15 5H8ZM11.5 15C13.433 15 15 13.433 15 11.5C15 9.567 13.433 8 11.5 8C9.567 8 8 9.567 8 11.5C8 13.433 9.567 15 11.5 15ZM16 7.5C16 7.77614 15.7761 8 15.5 8C15.2239 8 15 7.77614 15 7.5C15 7.22386 15.2239 7 15.5 7C15.7761 7 16 7.22386 16 7.5Z" fill="#C4C4C4"/>
<path fill-rule="evenodd" clip-rule="evenodd" d="M23 11.5C23 17.8513 17.8513 23 11.5 23C5.14873 23 0 17.8513 0 11.5C0 5.14873 5.14873 0 11.5 0C17.8513 0 23 5.14873 23 11.5ZM22 11.5C22 17.299 17.299 22 11.5 22C5.70101 22 1 17.299 1 11.5C1 5.70101 5.70101 1 11.5 1C17.299 1 22 5.70101 22 11.5Z" fill="#C4C4C4"/>
</svg>
