<svg width="9" height="9" viewBox="0 0 9 9" fill="none" xmlns="http://www.w3.org/2000/svg">
<path d="M9 7.10795C9 7.06321 9 7.01847 8.98082 6.97372C8.93608 6.83949 8.62287 6.69886 8.49503 6.63494C8.13068 6.4304 7.75994 6.23224 7.40199 6.02131C7.2358 5.91903 7.03125 5.72727 6.8331 5.72727C6.44318 5.72727 5.87429 6.88423 5.52912 6.88423C5.35653 6.88423 5.13281 6.72443 4.9794 6.63494C3.81605 5.98935 3.01065 5.18395 2.36506 4.0206C2.27557 3.86719 2.11577 3.64347 2.11577 3.47088C2.11577 3.12571 3.27273 2.55682 3.27273 2.1669C3.27273 1.96875 3.08097 1.7642 2.97869 1.59801C2.76776 1.24006 2.5696 0.869318 2.36506 0.504972C2.30114 0.377131 2.16051 0.0639206 2.02628 0.0191762C1.98153 0 1.93679 0 1.89205 0C1.66193 0 1.21449 0.102273 1.00355 0.198154C0.690341 0.332386 0.485795 0.690341 0.325994 0.977983C0.121449 1.35511 0 1.73864 0 2.1669C0 2.76136 0.242898 3.2983 0.441051 3.84162C0.581676 4.23153 0.754261 4.60867 0.971591 4.96023C1.64276 6.04688 2.95312 7.35725 4.03977 8.02841C4.39134 8.24574 4.76847 8.41832 5.15838 8.55895C5.7017 8.7571 6.23864 9 6.8331 9C7.26136 9 7.64489 8.87855 8.02202 8.67401C8.30966 8.51421 8.66761 8.30966 8.80185 7.99645C8.89773 7.78551 9 7.33807 9 7.10795Z" fill="#939393"/>
</svg>
