<svg width="44" height="45" viewBox="0 0 44 45" fill="none" xmlns="http://www.w3.org/2000/svg">
<path d="M43.296 18.0025C43.78 18.4492 44 18.9853 44 19.6107V25.0159C44 25.6413 43.78 26.1773 43.296 26.624C42.856 27.0707 42.328 27.2941 41.756 27.2941H37.62C36.916 27.2941 36.432 27.6068 36.168 28.2322C35.904 28.9469 35.992 29.5277 36.52 30.019L39.424 32.9673C39.864 33.3694 40.04 33.9501 40.04 34.6202C40.04 35.2456 39.82 35.7816 39.424 36.1837L35.684 40.0254C35.244 40.4721 34.76 40.6508 34.1 40.6508C33.484 40.6508 32.912 40.4274 32.472 40.0254L29.568 37.0771C29.128 36.541 28.556 36.4517 27.852 36.7197C27.192 37.0324 26.884 37.5238 26.884 38.1939V42.393C26.884 42.9737 26.664 43.5098 26.224 43.9565C25.784 44.4032 25.3 44.6712 24.684 44.6712H19.316C18.7 44.6712 18.172 44.4478 17.732 43.9565C17.292 43.4651 17.116 42.9737 17.116 42.393V38.1939C17.116 37.4791 16.808 36.9878 16.192 36.7197C15.488 36.4517 14.916 36.541 14.432 37.0771L11.528 40.0254C11.044 40.4721 10.516 40.6508 9.9 40.6508C9.284 40.6508 8.756 40.4274 8.36 40.0254L4.576 36.2283C4.136 35.7816 3.96 35.2902 3.96 34.6202C3.96 33.9054 4.18 33.3694 4.576 32.9673L7.48 30.019C8.008 29.5723 8.096 28.9916 7.832 28.2769C7.524 27.6068 7.04 27.2941 6.38 27.2941H2.244C1.672 27.2941 1.144 27.0707 0.704 26.624C0.22 26.222 0 25.6859 0 25.0605V19.6107C0 18.9853 0.22 18.4492 0.704 18.0025C1.144 17.5558 1.672 17.3324 2.244 17.3324H6.38C7.084 17.3324 7.568 17.0197 7.832 16.3943C8.096 15.7243 8.008 15.1435 7.48 14.6522L4.576 11.7039C4.136 11.3018 3.96 10.7211 3.96 10.051C3.96 9.42562 4.18 8.88957 4.576 8.48753L8.36 4.6458C8.756 4.19909 9.24 4.02041 9.9 4.02041C10.516 4.02041 11.088 4.24376 11.528 4.6458L14.432 7.5941C14.872 8.13016 15.444 8.2195 16.148 7.95147C16.764 7.63878 17.116 7.14739 17.116 6.47732V2.27823C17.116 1.69751 17.336 1.16145 17.776 0.714739C18.216 0.268027 18.7 0 19.316 0H24.64C25.256 0 25.784 0.223356 26.224 0.714739C26.664 1.20612 26.884 1.69751 26.884 2.27823V6.47732C26.884 7.19206 27.192 7.68345 27.808 7.95147C28.512 8.2195 29.084 8.13016 29.568 7.5941L32.472 4.6458C32.956 4.19909 33.484 4.02041 34.1 4.02041C34.716 4.02041 35.244 4.24376 35.64 4.6458L39.424 8.48753C39.864 8.88957 40.04 9.38095 40.04 10.051C40.04 10.7658 39.82 11.3018 39.424 11.7039L36.52 14.6522C35.992 15.0989 35.904 15.6796 36.168 16.3943C36.476 17.0644 36.96 17.3771 37.62 17.3771H41.756C42.328 17.3771 42.856 17.6005 43.296 18.0025ZM42.372 19.6107C42.372 19.2086 42.152 18.9853 41.756 18.9853H37.62C36.212 19.0299 35.2 18.3599 34.628 17.0197C34.056 15.6796 34.276 14.4735 35.332 13.446L38.236 10.4977C38.588 10.2744 38.588 9.96168 38.236 9.60431L34.54 5.85193C34.188 5.49456 33.924 5.49456 33.66 5.85193L30.756 8.80023C29.744 9.82766 28.556 10.0957 27.236 9.51497C25.916 8.93424 25.256 7.9068 25.256 6.47732V2.27823C25.256 1.87619 25.036 1.65283 24.64 1.65283H19.316C18.92 1.65283 18.7 1.87619 18.7 2.27823V6.47732C18.7 7.95147 18.04 8.93424 16.72 9.51497C15.4 10.0957 14.212 9.87234 13.2 8.80023L10.296 5.85193C10.076 5.49456 9.768 5.49456 9.416 5.85193L5.764 9.60431C5.412 9.96168 5.412 10.2297 5.764 10.4977L8.668 13.446C9.68 14.4735 9.944 15.6796 9.372 17.0197C8.8 18.3599 7.788 19.0299 6.38 19.0299H2.244C1.848 19.0299 1.628 19.2533 1.628 19.6553V25.0605C1.628 25.4626 1.848 25.6859 2.244 25.6859H6.38C7.832 25.6859 8.8 26.356 9.372 27.6961C9.944 29.0363 9.724 30.2424 8.668 31.2698L5.764 34.2181C5.412 34.4415 5.412 34.7542 5.764 35.1116L9.46 38.8639C9.812 39.2213 10.076 39.2213 10.34 38.8639L13.244 35.9156C13.992 35.2902 14.74 34.9776 15.488 34.9776C15.928 34.9776 16.368 35.0669 16.764 35.2456C18.084 35.737 18.744 36.7644 18.744 38.1939V42.393C18.744 42.795 18.964 43.0184 19.36 43.0184H24.684C25.08 43.0184 25.3 42.795 25.3 42.393V38.1939C25.3 36.7197 25.96 35.737 27.28 35.1562C28.6 34.5755 29.788 34.7989 30.8 35.871L33.704 38.8193C33.924 39.1766 34.232 39.1766 34.584 38.8193L38.28 35.0669C38.632 34.7095 38.632 34.4415 38.28 34.1735L35.332 31.2252C34.32 30.1977 34.056 28.9916 34.628 27.6515C35.2 26.3113 36.212 25.6413 37.62 25.6413H41.756C42.152 25.6413 42.372 25.4179 42.372 25.0159V19.6107ZM29.304 22.3356C29.304 24.3905 28.6 26.1327 27.148 27.5621C25.74 29.0363 24.024 29.751 22 29.751C19.976 29.751 18.26 29.0363 16.852 27.5621C15.4 26.1327 14.696 24.3905 14.696 22.3356C14.696 20.2807 15.4 18.5385 16.852 17.1091C18.26 15.6349 19.976 14.9202 22 14.9202C24.024 14.9202 25.74 15.6349 27.148 17.1091C28.6 18.5385 29.304 20.2807 29.304 22.3356ZM27.676 22.3356C27.676 20.7274 27.148 19.3426 26.048 18.2258C24.948 17.1091 23.584 16.573 22 16.573C20.416 16.573 19.052 17.1091 17.952 18.2258C16.852 19.3426 16.324 20.7274 16.324 22.3356C16.324 23.9438 16.852 25.3286 17.952 26.4454C19.052 27.5621 20.416 28.0982 22 28.0982C23.584 28.0982 24.948 27.5621 26.048 26.4454C27.148 25.3286 27.676 23.9438 27.676 22.3356Z" fill="white"/>
</svg>
