<svg width="48" height="49" viewBox="0 0 48 49" fill="none" xmlns="http://www.w3.org/2000/svg">
<path d="M48 24.3661C48 31.1073 45.64 36.8334 40.96 41.5847C36.28 46.3361 30.64 48.7321 24 48.7321C17.36 48.7321 11.72 46.3361 7.04 41.5847C2.36 36.8334 0 31.1073 0 24.3661C0 17.6248 2.36 11.8988 7.04 7.14738C11.72 2.396 17.36 0 24 0C30.64 0 36.28 2.396 40.96 7.14738C45.64 11.8988 48 17.6248 48 24.3661ZM46.4 24.3661C46.4 18.0715 44.2 12.711 39.84 8.28446C35.48 3.85796 30.2 1.6244 24 1.6244C17.8 1.6244 12.52 3.85796 8.16 8.28446C3.8 12.711 1.6 18.0715 1.6 24.3661C1.6 30.6606 3.8 36.0212 8.16 40.4477C12.52 44.8742 17.8 47.1077 24 47.1077C30.2 47.1077 35.48 44.8742 39.84 40.4477C44.2 36.0212 46.4 30.6606 46.4 24.3661ZM7.96 24.2848C7.96 24.8534 7.72 25.1377 7.2 25.1377H6.36C5.84 25.1377 5.6 24.8534 5.6 24.2848C5.6 23.7163 5.84 23.432 6.36 23.432H7.2C7.72 23.432 7.96 23.7163 7.96 24.2848ZM12.64 11.6145C13.08 12.0612 13.08 12.4267 12.64 12.7516C12.6 12.9546 12.4 13.0358 12.08 13.0358C11.88 13.0358 11.72 12.9546 11.52 12.7516L10.96 12.183C10.64 11.8581 10.64 11.4927 10.96 11.0459C11.4 10.7211 11.76 10.7211 12.08 11.0459L12.64 11.6145ZM12.64 35.7775C13.08 36.1024 13.08 36.4679 12.64 36.9146L12.08 37.4831C11.96 37.6456 11.8 37.6862 11.52 37.6862C11.4 37.6862 11.2 37.6049 10.96 37.4831C10.64 37.0364 10.64 36.6709 10.96 36.346L11.52 35.7775C11.96 35.3308 12.36 35.3308 12.64 35.7775ZM27.2 24.2848C27.2 25.1783 26.88 25.9499 26.28 26.559C25.68 27.1682 24.88 27.493 24 27.493C22.36 27.493 21.36 26.6808 20.92 25.097H15.2C14.68 25.097 14.44 24.8128 14.44 24.2442C14.44 23.6757 14.68 23.432 15.2 23.432H20.92C21.2 22.2137 21.96 21.4421 23.16 21.1173V12.9546C23.16 12.3861 23.44 12.1018 24 12.1018C24.56 12.1018 24.84 12.3861 24.84 12.9546V21.1173C26.4 21.564 27.2 22.6198 27.2 24.2848ZM25.6 24.2848C25.6 23.8381 25.44 23.4726 25.12 23.1478C24.8 22.8229 24.44 22.6604 24 22.6604C23.56 22.6604 23.2 22.8229 22.88 23.1478C22.56 23.4726 22.4 23.8381 22.4 24.2848C22.4 24.7316 22.56 25.097 22.88 25.4219C23.2 25.7468 23.56 25.9092 24 25.9092C24.44 25.9092 24.8 25.7468 25.12 25.4219C25.44 25.097 25.6 24.7316 25.6 24.2848ZM23.16 7.2286V6.37579C23.16 5.84785 23.44 5.60419 24 5.60419C24.56 5.60419 24.84 5.84785 24.84 6.37579V7.2286C24.84 7.75653 24.56 8.00019 24 8.00019C23.44 8.00019 23.16 7.75653 23.16 7.2286ZM24.84 41.3005V42.1533C24.84 42.6812 24.56 42.9249 24 42.9249C23.44 42.9249 23.16 42.6812 23.16 42.1533V41.3005C23.16 40.7725 23.44 40.5289 24 40.5289C24.56 40.5289 24.84 40.8131 24.84 41.3005ZM37.04 11.0459C37.36 11.4927 37.36 11.8581 37.04 12.183L36.48 12.7516C36.28 12.9546 36.08 13.0358 35.92 13.0358C35.6 13.0358 35.4 12.9546 35.36 12.7516C34.92 12.4267 34.92 12.0612 35.36 11.6145L35.92 11.0459C36.2 10.7211 36.6 10.7211 37.04 11.0459ZM37.04 36.346C37.36 36.6709 37.36 37.0364 37.04 37.4831C36.8 37.6456 36.6 37.6862 36.48 37.6862C36.24 37.6862 36.04 37.6049 35.92 37.4831L35.36 36.9146C34.92 36.4679 34.92 36.1024 35.36 35.7775C35.68 35.3308 36.04 35.3308 36.48 35.7775L37.04 36.346ZM42.36 24.2848C42.36 24.8534 42.12 25.1377 41.6 25.1377H40.8C40.28 25.1377 40.04 24.8534 40.04 24.2848C40.04 23.7163 40.28 23.432 40.8 23.432H41.64C42.12 23.432 42.36 23.7163 42.36 24.2848Z" fill="white"/>
</svg>
