<svg width="52" height="53" viewBox="0 0 52 53" fill="none" xmlns="http://www.w3.org/2000/svg">
<path d="M43.472 45.8772V45.9828L42.64 46.7219C42.588 46.7219 42.484 46.7747 42.328 46.9331L41.132 47.8306C41.08 47.9362 40.872 47.989 40.612 48.1474C40.248 48.4113 39.78 48.7809 39.104 49.2032L38.688 49.4144C38.324 49.6256 37.752 49.9423 36.972 50.3647L36.764 50.4175C34.944 51.3149 32.864 51.9485 30.576 52.3708H30.472L28.34 52.6876H28.132C27.664 52.7404 26.936 52.7932 26 52.7932C25.064 52.7932 24.336 52.7404 23.868 52.6876H23.66L21.528 52.3708H21.32C19.24 51.9485 17.16 51.2621 15.132 50.3119H14.924C14.092 49.8895 13.52 49.5728 13.208 49.4144C13.052 49.256 12.948 49.2032 12.792 49.2032C12.48 48.8865 11.96 48.5697 11.284 48.1474C11.18 48.0946 11.128 47.989 11.024 47.9362C10.92 47.8834 10.816 47.8306 10.764 47.8306C10.608 47.725 10.4 47.5138 10.088 47.3027C9.776 47.0915 9.568 46.8803 9.412 46.7219C9.36 46.7219 9.308 46.7219 9.308 46.6691C9.308 46.6164 9.308 46.6164 9.256 46.6164L8.424 45.8772C2.808 40.6507 0 34.1572 0 26.3966C0 19.1111 2.548 12.8815 7.592 7.7078C12.636 2.53407 18.824 0 26 0C33.176 0 39.312 2.58686 44.408 7.7078C49.504 12.8287 52 19.1111 52 26.3966C52 34.1572 49.14 40.6507 43.472 45.8772ZM9.932 44.663C10.192 44.399 10.452 44.2407 10.66 44.1351L18.096 40.0172C18.824 39.5949 19.188 38.9613 19.188 38.1694V35.3714C17.836 33.5237 16.848 31.4647 16.276 29.1946C15.444 28.5611 15.028 27.6636 15.028 26.5022V23.1234C15.028 22.2787 15.288 21.5396 15.86 20.8533V16.4187C15.444 14.4125 16.016 12.512 17.576 10.717C19.396 8.65808 22.204 7.65501 26 7.65501C29.796 7.65501 32.604 8.71087 34.424 10.7698C35.984 12.5648 36.556 14.4653 36.14 16.4187V20.8533C36.66 21.5396 36.972 22.2787 36.972 23.1234V26.5022C36.972 27.9276 36.348 29.0362 35.048 29.7225C34.424 31.4647 33.592 33.1013 32.604 34.5267C32.344 34.9491 32.136 35.213 31.98 35.3714V38.275C31.98 39.1725 32.344 39.806 33.072 40.1228L41.08 44.1351C41.496 44.399 41.756 44.5574 41.912 44.663C47.372 39.8588 50.076 33.7348 50.076 26.3966C50.076 19.6391 47.736 13.8846 43.004 9.13321C38.324 4.32904 32.656 1.95335 26 1.95335C19.344 1.95335 13.676 4.32904 8.996 9.13321C4.264 13.8846 1.924 19.6391 1.924 26.3966C1.924 33.682 4.628 39.7532 9.932 44.663ZM40.3 46.0884L40.404 45.9828L40.3 45.8772L32.292 41.865C30.784 41.0203 30.056 39.8588 30.056 38.275V34.6323L30.368 34.3155C30.524 34.21 30.68 33.946 30.992 33.5237C32.032 32.0982 32.812 30.4616 33.436 28.6667L33.54 28.1387L34.06 28.0332C34.788 27.7692 35.152 27.2413 35.152 26.5022V23.1234C35.152 22.7011 34.996 22.3315 34.632 22.0147L34.216 21.6452L34.32 16.2075V15.4684C34.32 15.046 34.216 14.5181 33.956 13.8318C33.748 13.1455 33.384 12.512 32.916 11.984C31.564 10.4003 29.276 9.60835 26 9.60835C22.724 9.60835 20.436 10.4003 18.98 11.984C17.94 13.1983 17.524 14.6237 17.68 16.2075L17.784 16.3131V21.6452L17.368 21.962C17.004 22.3315 16.848 22.7011 16.848 23.0706V26.4494C16.848 26.9773 17.108 27.4524 17.576 27.7692L17.992 27.9804V28.4027C18.148 29.0362 18.304 29.6697 18.616 30.3033C18.876 30.9368 19.136 31.5175 19.396 31.9399C19.604 32.4678 19.812 32.8901 20.072 33.2597C20.28 33.6292 20.488 33.946 20.592 34.1044L20.8 34.4211L21.112 34.6323V38.1167C21.112 39.7004 20.384 40.8619 18.98 41.601L11.492 45.7717V45.8772L11.596 45.9828L12.792 46.9331C12.948 46.9331 13.052 46.9859 13.208 47.1443C13.884 47.5138 14.352 47.8306 14.612 47.9362C14.716 47.989 14.768 48.0418 14.82 48.0418L16.432 48.8865C16.848 49.0976 17.472 49.3088 18.252 49.6256H18.356C19.604 49.9951 20.8 50.3119 22.048 50.523H22.152C22.932 50.6814 23.504 50.7342 23.868 50.7342C23.92 50.787 24.024 50.8398 24.18 50.8398H26H27.716C27.924 50.8398 28.028 50.787 28.132 50.7342C28.444 50.7342 29.068 50.6814 29.848 50.523C30.628 50.3647 31.304 50.2591 31.772 50.1007C32.188 50.0479 32.812 49.8367 33.592 49.5728H33.696C35.204 49.0448 36.244 48.5169 36.972 48.1474L37.18 48.0418H37.284C37.492 47.9362 37.7 47.7778 37.96 47.5666C38.22 47.4082 38.48 47.2499 38.688 47.1971C38.74 47.1971 38.844 47.1443 38.896 47.0915C38.948 47.0387 39.052 46.9859 39.104 46.9331C39.26 46.8803 39.416 46.7219 39.676 46.5108C39.884 46.2996 40.04 46.194 40.092 46.194C40.144 46.194 40.196 46.194 40.196 46.194C40.196 46.194 40.248 46.1412 40.3 46.0884Z" fill="white"/>
</svg>
