<svg width="23" height="23" viewBox="0 0 23 23" fill="none" xmlns="http://www.w3.org/2000/svg">
<path d="M17.2751 8C17.6617 8 17.8067 8.18333 17.71 8.55C17.6617 8.8 17.4684 9.21667 17.1301 9.8C16.8885 10.2167 16.5985 10.7 16.2602 11.25C15.9703 11.6833 15.8172 11.9083 15.8011 11.925C15.7045 12.075 15.6561 12.1917 15.6561 12.275C15.6561 12.3583 15.7045 12.4583 15.8011 12.575L16.0186 12.825C17.1784 14.0583 17.8309 14.9083 17.9758 15.375C18.0242 15.575 18 15.7333 17.9033 15.85C17.8228 15.95 17.6859 16 17.4926 16H16.0669C15.8897 16 15.7286 15.9417 15.5836 15.825C15.487 15.7583 15.3098 15.5833 15.052 15.3C14.8104 15 14.5929 14.75 14.3996 14.55C13.7553 13.9167 13.28 13.6 12.974 13.6C12.8451 13.6 12.7485 13.625 12.684 13.675C12.6357 13.725 12.6115 13.8333 12.6115 14C12.5954 14.1167 12.5874 14.375 12.5874 14.775V15.425C12.6035 15.625 12.5551 15.7667 12.4424 15.85C12.2974 15.95 12.0074 16 11.5725 16C10.8154 16 10.0502 15.7667 9.27695 15.3C8.50372 14.8333 7.82714 14.1667 7.24721 13.3C6.6995 12.5333 6.2404 11.7583 5.86989 10.975C5.57993 10.375 5.34634 9.81667 5.16915 9.3C5.05638 8.88333 5 8.59167 5 8.425C5 8.14167 5.16109 8 5.48327 8H6.90892C7.08612 8 7.21499 8.04167 7.29554 8.125C7.39219 8.20833 7.47274 8.35833 7.53717 8.575C7.7627 9.24167 8.03656 9.89167 8.35874 10.525C8.6487 11.1083 8.93866 11.5833 9.22862 11.95C9.51859 12.3167 9.74411 12.5 9.9052 12.5C10.0019 12.5 10.0663 12.4667 10.0985 12.4C10.1468 12.3167 10.171 12.1667 10.171 11.95V9.775C10.1549 9.50833 10.0985 9.275 10.0019 9.075C9.95353 8.95833 9.87299 8.83333 9.76022 8.7C9.64746 8.55 9.59108 8.43333 9.59108 8.35C9.59108 8.25 9.6233 8.16667 9.68773 8.1C9.76828 8.03333 9.85688 8 9.95353 8H12.2007C12.3457 8 12.4424 8.04167 12.4907 8.125C12.5551 8.20833 12.5874 8.35 12.5874 8.55V11.45C12.5874 11.6 12.6115 11.7083 12.6599 11.775C12.7082 11.8417 12.7646 11.875 12.829 11.875C12.9095 11.875 12.9981 11.85 13.0948 11.8C13.1915 11.7333 13.3203 11.6083 13.4814 11.425C13.7875 11.075 14.0936 10.6417 14.3996 10.125C14.609 9.75833 14.8104 9.35833 15.0037 8.925L15.2454 8.425C15.3581 8.14167 15.5595 8 15.8494 8H17.2751Z" fill="#BDBDBD"/>
<path fill-rule="evenodd" clip-rule="evenodd" d="M23 11.5C23 17.8513 17.8513 23 11.5 23C5.14873 23 0 17.8513 0 11.5C0 5.14873 5.14873 0 11.5 0C17.8513 0 23 5.14873 23 11.5ZM22 11.5C22 17.299 17.299 22 11.5 22C5.70101 22 1 17.299 1 11.5C1 5.70101 5.70101 1 11.5 1C17.299 1 22 5.70101 22 11.5Z" fill="#BDBDBD"/>
</svg>
