<svg width="80" height="73" viewBox="0 0 80 73" fill="none" xmlns="http://www.w3.org/2000/svg">
<rect x="0.736327" width="52.2567" height="52.2567" transform="matrix(0.736327 -0.676625 0.736327 0.676625 1.1485 36.9479)" stroke="#A81428"/>
<rect x="0.711238" y="-0.175124" width="42.2093" height="42.2093" transform="matrix(0.520662 -0.828693 0.901813 0.478446 9.71858 44.6758)" stroke="#A81428"/>
<rect x="0.637678" y="-0.338313" width="33.2107" height="33.2107" transform="matrix(0.269515 -0.924287 1.00584 0.247662 18.9423 48.5185)" stroke="#A81428"/>
<rect x="26.7021" y="48.7441" width="26.4985" height="24.2689" transform="rotate(-90 26.7021 48.7441)" stroke="#A81428"/>
<rect x="0.368164" y="-0.585975" width="19.5839" height="19.5839" transform="matrix(-0.269515 -0.924287 1.00584 -0.247662 33.4303 48.2806)" stroke="#A81428"/>
<rect x="0.190576" y="-0.65357" width="15.7232" height="15.7232" transform="matrix(-0.520662 -0.828693 0.901813 -0.478446 37.6436 46.7307)" stroke="#A81428"/>
<rect y="-0.676625" width="12.1318" height="12.1318" transform="matrix(-0.736328 -0.676625 0.736328 -0.676625 40.1301 44.2005)" stroke="#A81428"/>
</svg>
